# xmcd
#
# Track frame offsets: 
#        150
#        22370
#        36842
#        57055
#        83145
#        110087
#        124200
#        144400
#        157387
#        189050
#        209547
#
# Disc length: 3069 seconds
#
# Revision: 0
# Processed by: cddbd v1.5PL3 Copyright (c) Steve Scherf et al.
# Submitted via: ExactAudioCopy v0.90b4
#
DISCID=a00bfb0b
DTITLE=The Bill Perry Blues Band - Love Scars
DYEAR=1995
DGENRE=Blues
TTITLE0=Fade To Blue
TTITLE1=Lost In The Blues
TTITLE2=Love Scars
TTITLE3=Down
TTITLE4=Darkness Of Your Love
TTITLE5=Boogie Blues
TTITLE6=Settle Down, Fred
TTITLE7=Smokey Joe
TTITLE8=I'm Leavin' You
TTITLE9=In My Lonely Room
TTITLE10=Fade To Blue Reprise
EXTD=
EXTT0=
EXTT1=
EXTT2=
EXTT3=
EXTT4=
EXTT5=
EXTT6=
EXTT7=
EXTT8=
EXTT9=
EXTT10=
PLAYORDER=
